<svg height="173px" width="173px" version="1.1" id="_x32_" xmlns="http://www.w3.org/2000/svg" xmlns:xlink="http://www.w3.org/1999/xlink" viewBox="-51.2 -51.2 614.40 614.40" xml:space="preserve" fill="#ffd500" stroke="#ffd500" stroke-width="0.00512" transform="rotate(0)"><g id="SVGRepo_bgCarrier" stroke-width="0" transform="translate(0,0), scale(1)"><path transform="translate(-51.2, -51.2), scale(19.2)" d="M16,30.546042149776923C19.059926791323377,31.113455004160112,22.13781120594939,29.732834582600734,24.761833700990827,28.059629496218804C27.516788082959877,26.302935834723343,30.313745187298583,24.07852889867285,31.111693899629536,20.910086991432294C31.892983980446104,17.80779207508452,30.114467558764538,14.763502690494793,28.850501278609983,11.82461902811347C27.70619636667967,9.16396338938593,26.404551842075122,6.598237446250682,24.16600192178157,4.760462592326991C21.82113374841633,2.8354039971577047,18.994556577710856,0.7880742306350055,16.000000000000004,1.2747858990641205C13.063139390779547,1.752120118660039,11.996419558696065,5.428275610464076,9.558899749716783,7.134586067567826C7.04835842836029,8.892012979070747,2.473220908368384,8.38478232849923,1.6330797960428143,11.331904651527825C0.7838534726971147,14.31089689237622,4.6142384582304,16.502237149206984,6.116123228088583,19.211466238332935C7.2406079544322,21.239908627542082,7.7944484209071705,23.447943040777606,9.31874159071882,25.195963280530606C11.240929617814047,27.40027911853212,13.12433227984121,30.01279709503259,16,30.546042149776923" fill="#ffffff" strokewidth="0"></path></g><g id="SVGRepo_tracerCarrier" stroke-linecap="round" stroke-linejoin="round" stroke="#CCCCCC" stroke-width="2.048"></g><g id="SVGRepo_iconCarrier"> <style type="text/css"> .st0{fill:#ffba00;} </style> <g> <path class="st0" d="M204.762,254.456l34.212-34.204c-39.807-18.293-88.544-11.079-121.29,21.675 c-42.013,42.006-42.013,110.372,0,152.393c42.005,42.014,110.38,42.014,152.386,0c32.746-32.745,39.968-81.49,21.675-121.298 l-34.211,34.211c3.381,19.976-2.553,41.224-17.939,56.604c-25.21,25.218-66.225,25.218-91.434,0 c-25.21-25.21-25.21-66.224,0-91.427C163.546,257.016,184.794,251.074,204.762,254.456z"></path> <path class="st0" d="M323.628,241.146c34.324,57.876,26.642,133.939-23.076,183.65c-58.826,58.826-154.527,58.826-213.345,0 c-58.826-58.817-58.826-154.527,0-213.352c49.703-49.711,125.775-57.393,183.65-23.076l31.216-31.225 c-75.387-50.693-178.754-42.77-245.35,23.817c-75.629,75.621-75.629,198.69,0,274.311c75.63,75.638,198.683,75.638,274.312,0 c66.603-66.595,74.518-169.962,23.809-245.358L323.628,241.146z"></path> <path class="st0" d="M511.279,84.84c-1.61-4.195-5.684-6.78-10.298-6.57l-70.565,3.31l3.318-70.556 c0.201-4.622-2.384-8.68-6.578-10.306c-4.17-1.61-9.122-0.451-12.52,2.931l-75.299,75.306l-3.809,81.322L198.634,297.162 c-6.964-1.578-14.565,0.29-19.992,5.716c-8.422,8.422-8.422,22.062,0,30.484c8.414,8.422,22.062,8.422,30.484,0 c5.418-5.427,7.295-13.028,5.716-20l136.886-136.894l81.314-3.8l75.307-75.316C511.739,93.963,512.89,89.026,511.279,84.84z"></path> </g> </g></svg>