<svg fill="#ffba00" height="200px" width="200px" version="1.1" id="Capa_1" xmlns="http://www.w3.org/2000/svg" xmlns:xlink="http://www.w3.org/1999/xlink" viewBox="-40.78 -40.78 489.39 489.39" xml:space="preserve"><g id="SVGRepo_bgCarrier" stroke-width="0"><path transform="translate(-40.78, -40.78), scale(15.293437500000001)" d="M16,30.587575976337703C20.55263154111549,30.777639592465874,25.189724299555802,29.15601832103897,27.977242688370676,25.55153231616196C30.722242917659166,22.00202571934229,30.731383087968332,17.24001147145604,29.699349280131145,12.87321292341867C28.679196136217712,8.556684497908286,26.603648842385628,4.1922723244384095,22.520084876067052,2.460904247379082C18.597485136369567,0.7977825173389084,14.362070143083802,2.7855931251012267,10.593101054262586,4.772458650071851C7.051964643399277,6.639218946628973,3.6751533531591347,9.084298515332657,2.6271669866904936,12.947738130602938C1.5311893409386137,16.988099331404086,2.6853110968788987,21.26515412595574,5.214401902055801,24.601227466291167C7.827879259106763,28.048613427515345,11.677712102920545,30.407128764599445,16,30.587575976337703" fill="#ffffff" strokewidth="0"></path></g><g id="SVGRepo_tracerCarrier" stroke-linecap="round" stroke-linejoin="round"></g><g id="SVGRepo_iconCarrier"> <g> <path d="M66,217.709v-35c0-1.657-1.343-3-3-3H3c-1.657,0-3,1.343-3,3v35c0,1.657,1.343,3,3,3h60 C64.657,220.709,66,219.366,66,217.709z"></path> <path d="M132.666,151.708h60c1.657,0,3-1.343,3-3v-35c0-1.657-1.343-3-3-3h-60c-1.657,0-3,1.343-3,3v35 C129.666,150.365,131.01,151.708,132.666,151.708z"></path> <path d="M292,273.375h-60c-1.657,0-3,1.343-3,3v35c0,1.657,1.343,3,3,3h60c1.657,0,3-1.343,3-3v-35 C295,274.718,293.657,273.375,292,273.375z"></path> <path d="M404.834,93.459h-60c-1.657,0-3,1.343-3,3v35c0,1.657,1.343,3,3,3h60c1.657,0,3-1.343,3-3v-35 C407.834,94.802,406.491,93.459,404.834,93.459z"></path> <path d="M371.499,139.15c-11.045,0-20,8.954-20,20c0,0.64,0.037,1.271,0.096,1.896l-88.943,66.643 c-2.744-1.417-5.851-2.23-9.152-2.23c-3.186,0-6.186,0.764-8.859,2.089l-62.014-47.962c0.01-0.266,0.04-0.526,0.04-0.794 c0-11.045-8.955-20-20-20c-11.045,0-20,8.955-20,20c0,0.267,0.03,0.526,0.04,0.79l-58.854,44.996 c-2.367-0.986-4.962-1.536-7.686-1.536c-11.045,0-20,8.955-20,20c0,11.046,8.955,20,20,20s20-8.954,20-20 c0-0.871-0.075-1.722-0.183-2.564l57.477-43.943c2.757,1.433,5.883,2.256,9.206,2.256c3.317,0,6.439-0.82,9.193-2.25l61.701,47.72 c-0.024,0.398-0.061,0.792-0.061,1.197c0,11.045,8.955,20,20,20c11.045,0,20-8.955,20-20c0-0.295-0.031-0.582-0.044-0.874 l89.753-67.25c2.528,1.155,5.329,1.815,8.29,1.815c11.045,0,20-8.955,20-20C391.499,148.105,382.545,139.15,371.499,139.15z"></path> </g> </g></svg>