<svg xmlns="http://www.w3.org/2000/svg" viewBox="0 0 60.6 60.6"><defs><style>.cls-1{fill:none;stroke:#f60;stroke-miterlimit:10;}</style></defs><title>Asset 5</title><g id="Layer_2" data-name="Layer 2"><g id="Layer_1-2" data-name="Layer 1"><path class="cls-1" d="M24.75,31.85a1.61,1.61,0,0,1,.5-1.1,1.38,1.38,0,0,1,.4-.3h0a1.34,1.34,0,0,1-.7-1.4,2.07,2.07,0,0,1,1-1.4h0a1.28,1.28,0,0,1-.6-1.4,2.38,2.38,0,0,1,.6-1.1,1.38,1.38,0,0,1,.4-.3h0a1.39,1.39,0,0,1-.5-1.4,1.9,1.9,0,0,1,.7-1.1c.1-.1.3-.2.4-.3h0a1.19,1.19,0,0,1-.4-1.4,2.59,2.59,0,0,1,.7-1.1c.1-.1.2-.1.3-.2v-.2a1.19,1.19,0,0,1-.2-1.3,2.59,2.59,0,0,1,.7-1.1c.1,0,.1-.1.2-.1s.1-.2.1-.3c.5-1.5,1.3-2,1.9-2s1.3.5,1.9,2c0,.1.1.2.1.3s.1.1.2.1a2.59,2.59,0,0,1,.7,1.1,1.23,1.23,0,0,1-.2,1.3v.2c.1.1.2.1.3.2a2.59,2.59,0,0,1,.7,1.1,1.49,1.49,0,0,1-.4,1.4h0c.1.1.3.2.4.3a2.59,2.59,0,0,1,.7,1.1,1.55,1.55,0,0,1-.5,1.4h0c.1.1.3.2.4.3a2.38,2.38,0,0,1,.6,1.1,1.54,1.54,0,0,1-.6,1.4h0c.1.1.3.2.4.3a2.38,2.38,0,0,1,.6,1.1,1.62,1.62,0,0,1-.7,1.4h0c.1.1.3.2.4.3a1.61,1.61,0,0,1,.5,1.1,1.72,1.72,0,0,1-.8,1.4h0a1.38,1.38,0,0,0,.4.3,1.5,1.5,0,0,1,.4,1.1"/><path class="cls-1" d="M27.65,45.55a9.08,9.08,0,0,0,1.6-2.7c-2.7-6.1-6.3-17.1-12-20.8h-.1c-.2,0-.3.2-.2.4a31.34,31.34,0,0,1,4.2,10.3c.9,4.1,1.1,6.8,2.1,9.4.7,1.9,1.3,2.9,2.2,3.4A1.92,1.92,0,0,0,27.65,45.55Z"/><path class="cls-1" d="M43.35,21.85c-6.2,3.9-8.8,15.4-11.7,21.5a16,16,0,0,1-1.7,3,2.88,2.88,0,0,0,1.6,0c2-.1,5.1-1.2,6.6-5.5,1-2.7,1.2-5.3,2.1-9.4s1.9-7.2,3.5-9.3c.1-.2,0-.4-.2-.4A.31.31,0,0,1,43.35,21.85Z"/><circle class="cls-1" cx="30.3" cy="30.3" r="29.8"/></g></g></svg>