<svg fill="#ffba00" version="1.1" id="Layer_1" xmlns="http://www.w3.org/2000/svg" xmlns:xlink="http://www.w3.org/1999/xlink" viewBox="-3.2 -3.2 38.40 38.40" xml:space="preserve"><g id="SVGRepo_bgCarrier" stroke-width="0"><path transform="translate(-3.2, -3.2), scale(1.2)" d="M16,27.059360889097054C19.295853585343878,27.352420431014917,22.729559957418825,27.352225351866014,25.40422244740885,25.40422244740885C28.49624635506038,23.15224801127031,31.027480069357235,19.821942882061855,31.18481192489465,16C31.346697755977132,12.067430860082686,29.087092829410754,8.47594412931235,26.21172084591729,5.7882791540827085C23.43703404077453,3.194726533334991,19.767431668338112,1.324947843573047,16,1.8064669892191887C12.528375277457702,2.250178758287583,10.666905180938995,5.720695391392452,8.102798343676334,8.10279834367633C5.358605090945057,10.652204926105345,0.7151673424798811,12.254332682795612,0.7220142173270396,15.999999999999996C0.7288602686879004,19.745216818871167,5.097825004968564,21.672295098618697,8.131616969598198,23.868383030401798C10.51496741319263,25.59363222593344,13.06931117295476,26.798770937839233,16,27.059360889097054" fill="#ffffff" strokewidth="0"></path></g><g id="SVGRepo_tracerCarrier" stroke-linecap="round" stroke-linejoin="round"></g><g id="SVGRepo_iconCarrier"> <path id="Vision_2_" d="M4,7.36C2.147,7.36,0.64,5.853,0.64,4S2.147,0.64,4,0.64S7.36,2.147,7.36,4S5.853,7.36,4,7.36z M4,1.36 C2.544,1.36,1.36,2.544,1.36,4S2.544,6.64,4,6.64S6.64,5.456,6.64,4S5.456,1.36,4,1.36z M28,31.36c-1.853,0-3.36-1.508-3.36-3.36 s1.508-3.36,3.36-3.36s3.36,1.508,3.36,3.36S29.853,31.36,28,31.36z M28,25.36c-1.456,0-2.64,1.184-2.64,2.64s1.184,2.64,2.64,2.64 s2.64-1.184,2.64-2.64S29.456,25.36,28,25.36z M4,29.36c-0.75,0-1.36-0.61-1.36-1.36S3.25,26.64,4,26.64S5.36,27.25,5.36,28 S4.75,29.36,4,29.36z M4,27.36c-0.353,0-0.64,0.287-0.64,0.64S3.647,28.64,4,28.64S4.64,28.353,4.64,28S4.353,27.36,4,27.36z M28,5.36c-0.75,0-1.36-0.61-1.36-1.36S27.25,2.64,28,2.64S29.36,3.25,29.36,4S28.75,5.36,28,5.36z M28,3.36 c-0.353,0-0.64,0.287-0.64,0.64S27.647,4.64,28,4.64S28.64,4.353,28.64,4S28.353,3.36,28,3.36z M16,21.36 c-2.956,0-5.36-2.405-5.36-5.36c0-2.956,2.404-5.36,5.36-5.36c2.955,0,5.36,2.404,5.36,5.36C21.36,18.955,18.955,21.36,16,21.36z M16,11.36c-2.559,0-4.64,2.082-4.64,4.64s2.082,4.64,4.64,4.64s4.64-2.081,4.64-4.64S18.559,11.36,16,11.36z M16,19.36 c-1.853,0-3.36-1.508-3.36-3.36s1.507-3.36,3.36-3.36s3.36,1.507,3.36,3.36S17.853,19.36,16,19.36z M16,13.36 c-1.456,0-2.64,1.185-2.64,2.64c0,1.456,1.185,2.64,2.64,2.64c1.456,0,2.64-1.184,2.64-2.64S17.456,13.36,16,13.36z M28,0.64 c-1.853,0-3.36,1.507-3.36,3.36c0,0.797,0.29,1.519,0.755,2.096L21.55,9.941C20.038,9.174,18.208,8.64,16,8.64 c-8.143,0-11.3,7.146-11.331,7.218c-0.039,0.09-0.039,0.193,0,0.283c0.021,0.05,1.524,3.451,5.114,5.566l-3.688,3.687 C5.519,24.93,4.796,24.64,4,24.64c-1.853,0-3.36,1.508-3.36,3.36S2.147,31.36,4,31.36S7.36,29.853,7.36,28 c0-0.796-0.29-1.519-0.755-2.096l3.845-3.845c1.512,0.767,3.342,1.301,5.55,1.301c8.144,0,11.3-7.146,11.331-7.219 c0.039-0.09,0.039-0.193,0-0.283c-0.021-0.05-1.524-3.45-5.114-5.566l3.687-3.688C26.481,7.07,27.204,7.36,28,7.36 c1.853,0,3.36-1.507,3.36-3.36S29.853,0.64,28,0.64z M6.64,28c0,1.456-1.185,2.64-2.64,2.64S1.36,29.456,1.36,28 S2.544,25.36,4,25.36S6.64,26.544,6.64,28z M26.603,16c-0.48,0.977-3.568,6.64-10.603,6.64S5.877,16.977,5.398,16 C5.877,15.023,8.966,9.36,16,9.36S26.122,15.023,26.603,16z M28,6.64c-0.645,0-1.229-0.242-1.688-0.628l-0.32-0.32 C25.603,5.233,25.36,4.647,25.36,4c0-1.456,1.184-2.64,2.64-2.64S30.64,2.544,30.64,4S29.456,6.64,28,6.64z"></path> <rect id="_Transparent_Rectangle" style="fill:none;" width="32" height="32"></rect> </g></svg>